<svg xmlns="http://www.w3.org/2000/svg" version="1.1"
    xmlns:xlink="http://www.w3.org/1999/xlink"
    xmlns:svgjs="http://svgjs.dev/svgjs" viewBox="0 0 800 800">
    <g transform="matrix(1,0,0,1,0,0)">
        <path d="M-4.415974017308599 634.1668895299714C-2.606815900927984 630.5111288481785 2.6068309366371523 630.5111288481785 4.415989053017768 634.1668895299714L60.482646506656295 747.462953117711C62.103104307521164 750.7373716475219 59.72045489281078 754.5749349831668 56.067157661611986 754.5749349831668H-56.06714262590282C-59.72043985710161 754.5749349831668 -62.10308927181194 750.7373716475219 -60.482631470947126 747.462953117711L-4.415974017308599 634.1668895299714Z " stroke-width="0.5" stroke="#ff3895" fill="none" opacity="0.01" transform="matrix(-0.5000000000000004,0.804633123332986,-0.8660254037844384,-0.6063345489344334,946.4101615137755,327.27968160036573)"></path>
        <path d="M31.575587086766006 583.227710408314C33.644255588693 579.0475578254442 39.60576160377775 579.0475578254442 41.674430105704744 583.227710408314L105.7834359645783 712.7752585270819C107.63633648278034 716.5193682394475 104.91191358645165 720.9074017256972 100.73457781799078 720.9074017256972H-27.484560625520032C-31.661896393980953 720.9074017256972 -34.38631929030959 716.5193682394475 -32.53341877210755 712.7752585270819L31.575587086766006 583.227710408314Z " stroke-width="2.125" stroke="#ef439a" fill="none" opacity="0.13375" transform="matrix(-0.7547095802227719,0.5750707614266221,-0.6560590289905074,-0.8251116071347695,964.3074436853117,488.2229355344704)"></path>
        <path d="M67.56714819084061 532.2885312866567C69.89532707831398 527.5839868027099 76.60469227091835 527.5839868027099 78.93287115839172 532.2885312866567L151.08422542250037 678.0875639364527C153.16956865803957 682.3013648313732 150.10337228009257 687.2398684682278 145.40199797436958 687.2398684682278H1.0980213748628103C-3.6033529308602965 687.2398684682278 -6.669549308807177 682.3013648313732 -4.584206073268035 678.0875639364527L67.56714819084061 532.2885312866567Z " stroke-width="3.75" stroke="#dd4d9e" fill="none" opacity="0.2575" transform="matrix(-0.9271838545667874,0.28941036557833405,-0.374606593415912,-0.9616053649553962,920.7161791930798,648.1998076844686)"></path>
        <path d="M103.55870929491516 481.3493597943939C106.14639856793497 476.12042340937023 113.60362293805895 476.12042340937023 116.1913122110787 481.3493597943939L196.38501488042232 643.3998769752181C198.70280083329874 648.0833690526935 195.29483097373344 653.5723428401528 190.06941813074832 653.5723428401528H29.680603375245596C24.455190532260417 653.5723428401528 21.047220672695175 648.0833690526935 23.36500662557154 643.3998769752181L103.55870929491516 481.3493597943939Z " stroke-width="5.375" stroke="#ca55a2" fill="none" opacity="0.38125" transform="matrix(-0.9986295347545738,-0.02406609920641433,-0.052335956242943564,-1.0026335968133344,820.386196399007,789.1764050700062)"></path>
        <path d="M139.55027039898977 430.410188302131C142.39747005755595 424.6568600160306 150.6025536051995 424.6568600160306 153.44975326376567 430.410188302131L241.68580433834438 608.7121900139834C244.2360330085579 613.8653732740137 240.4862896673743 619.9048172120779 234.73683828712706 619.9048172120779H58.26318537562838C52.513733995381074 619.9048172120779 48.763990654197585 613.8653732740137 51.31421932441111 608.7121900139834L139.55027039898977 430.410188302131Z " stroke-width="7" stroke="#b45da6" fill="none" opacity="0.505" transform="matrix(-0.9612616959383187,-0.3344306397908854,0.27563735581699966,-0.9444029930451996,674.2497360485276,894.5557356067927)"></path>
        <path d="M175.54183150306437 379.47100918047363C178.64854154717693 373.1932889932963 187.6014842723401 373.1932889932963 190.70819431645265 379.47100918047363L286.9865937962664 574.0244954233543C289.7692651838171 579.6473698659393 285.67774836101523 586.2372839546083 279.4042584435058 586.2372839546083H86.84576737601117C80.57227745850173 586.2372839546083 76.48076063569994 579.6473698659393 79.26343202325063 574.0244954233543L175.54183150306437 379.47100918047363Z " stroke-width="8.625" stroke="#9c64aa" fill="none" opacity="0.62875" transform="matrix(-0.8191520442889916,-0.6111320796648261,0.5735764363510464,-0.792855299738368,498.2302431751781,951.3331835665467)"></path>
        <path d="M211.53337734834986 328.5318224294217C214.89959777800885 321.72971034116756 224.60039968069157 321.72971034116756 227.96662011035056 328.5318224294217L332.28736799539934 539.3367932033307C335.3024821002872 545.4293588284704 330.8691917958671 552.5697430677443 324.0716633410956 552.5697430677443H115.42833411760489C108.63080566283332 552.5697430677443 104.19751535841328 545.4293588284704 107.21262946330114 539.3367932033307L211.53337734834986 328.5318224294217Z " stroke-width="10.25" stroke="#806bae" fill="none" opacity="0.7525" transform="matrix(-0.587785252292473,-0.8269754580586407,0.8090169943749475,-0.5630675475587995,311.50730316701026,951.8409163881108)"></path>
        <path d="M247.5249231936354 277.5926661959479C251.15065400884077 270.2661622066169 261.5993150890431 270.2661622066169 265.2250459042485 277.5926661959479L377.58814219453234 504.64912150088514C380.8356990167573 511.21137830857975 376.06063523071884 518.9022326984584 368.73906823868526 518.9022326984584H144.0109008591986C136.68933386716492 518.9022326984584 131.91427008112657 511.21137830857975 135.1618269033516 504.64912150088514L247.5249231936354 277.5926661959479Z " stroke-width="11.875" stroke="#5a71b2" fill="none" opacity="0.87625" transform="matrix(-0.29237170472273666,-0.9607700958841906,0.9563047559630355,-0.2777662359492049,134.42677950388043,894.8389227944597)"></path>
        <path d="M283.51648429771 226.65348707429058C287.40172549846176 218.80259118388267 298.5982457561837 218.80259118388267 302.48348695693545 226.65348707429058L422.8889316524543 469.96142691025597C426.3689311920165 476.99337490050544 421.25209392435977 485.2346994409889 413.406488395064 485.2346994409889H172.5934828595814C164.74787733028563 485.2346994409889 159.63104006262898 476.99337490050544 163.11103960219117 469.96142691025597L283.51648429771 226.65348707429058Z " stroke-width="13.5" stroke="#0077b6" fill="none" opacity="1" transform="matrix(0.03489949670250108,-0.9993908270190958,0.9993908270190958,0.03489949670250108,-13.716129488638728,785.7965321266379)"></path>
    </g>
</svg>